<svg width="151" height="36" viewBox="0 0 151 36" fill="none" xmlns="http://www.w3.org/2000/svg">
<g clip-path="url(#clip0_1582_70567)">
<path d="M12.9129 12.4814H19.3693L22.6634 13.9924L19.3693 14.4522L16.1411 17.6712V21.6128L19.8964 25.6858H25.6939L30.0421 23.6493L33.2703 18.6566V25.6858L28.3951 31.2698L22.6634 34.4231L14.0329 33.9632L8.43302 29.496L6.52246 21.6128L8.43302 16.2917L12.9129 12.4814Z" fill="url(#paint0_linear_1582_70567)"/>
<path d="M10.3434 14.1898L7.3787 20.4307L6.58812 22.2701L7.3787 26.5402L9.61866 30.1533L12.3857 33.635L9.61866 33.2409L4.80932 30.1533L1.51526 23.5183L0.856445 17.5402L3.09641 12.4161L8.03751 8.40877L13.8351 7.02921L19.7644 8.40877L22.9267 11.4964L23.5196 14.584L17.7221 12.4161L10.3434 14.1898Z" fill="url(#paint1_linear_1582_70567)"/>
<path fill-rule="evenodd" clip-rule="evenodd" d="M18.8826 0.193793C25.1233 1.60594 29.9896 5.5901 31.8653 10.8234C33.1557 14.4233 32.9695 18.0459 31.3478 20.893C29.0375 24.9488 24.1825 26.6144 20.2708 24.6931C18.7029 23.9231 17.5935 22.6623 17.0341 21.0149C16.1105 18.2944 17.8188 15.75 20.5775 15.7373C22.0725 15.7303 23.1454 16.2272 23.9733 17.3096L24.3941 17.8597L24.5536 17.4371C24.8296 16.7057 24.8735 14.1086 24.6262 13.1354C23.865 10.1408 21.3864 7.75813 17.8944 6.66434C16.2445 6.14746 15.0244 6.00175 12.9925 6.07874C10.8987 6.15797 9.6684 6.43953 7.98698 7.22404C6.48857 7.92329 5.55413 8.56669 4.30159 9.76178C1.5239 12.412 0.0103388 15.9579 6.13592e-05 19.8395C-0.00639501 22.256 0.496274 24.3037 1.69333 26.7374C4.05413 31.5371 8.29189 34.6294 13.8757 35.6271C15.8513 35.9802 19.1989 36.0147 20.9326 35.6999C26.7833 34.6379 31.7356 30.6822 33.9784 25.2796C36.3405 19.5894 35.5764 12.5365 32.0224 7.22746C31.1887 5.98204 28.8539 3.66004 27.6406 2.86949C25.0606 1.18852 22.2606 0.259486 19.212 0.0726542L18.0262 0L18.8826 0.193793ZM16.5768 8.14007C19.0112 8.79188 21.0302 10.2173 22.3319 12.2031C23.0913 13.3618 23.1575 13.6889 22.5391 13.2255C21.8567 12.7143 20.3015 11.9859 19.2545 11.6873C18.0283 11.3375 15.8105 11.211 14.5976 11.4216C10.5506 12.1244 7.22974 15.2926 6.07721 19.5508C5.67876 21.0224 5.67915 23.6737 6.07787 25.2757C6.71665 27.8422 7.98317 29.9996 9.94261 31.8589C11.2747 33.1229 11.2078 33.1701 9.39578 32.2435C7.37626 31.2109 5.42315 29.4371 4.19104 27.5166C2.39024 24.7095 1.53509 21.4442 1.85448 18.5944C2.45123 13.2693 6.24429 9.02364 11.3722 7.94101C12.6124 7.67915 15.2289 7.77928 16.5768 8.14007ZM65.9593 11.3593C63.5234 11.9081 62.0083 13.4201 61.6421 15.668L61.5618 16.1607H63.2001H64.8384L64.9195 15.7337C65.1715 14.4034 66.0641 13.8915 68.1619 13.8743C70.3097 13.8567 71.0607 14.2664 71.0607 15.4558C71.0607 16.4732 70.5586 16.7178 67.3348 17.2711C62.9935 18.0162 61.3043 19.0985 60.9228 21.3794C60.6592 22.957 61.0972 24.2536 62.2424 25.2853C64.3249 27.1613 68.4665 27.0708 70.5401 25.104L71.0607 24.6102V25.4439V26.2775H72.7077H74.3547V20.6518C74.3547 14.421 74.3269 14.1677 73.5236 13.1117C72.9957 12.4179 72.047 11.7667 71.1464 11.4798C70.2106 11.1817 67.0715 11.1089 65.9593 11.3593ZM95.3528 11.4283C92.6481 12.1354 90.8372 14.0213 90.2239 16.7698C89.9592 17.9562 90.0235 20.4378 90.3449 21.4372C91.1227 23.856 92.7029 25.4513 95.0971 26.2343C96.009 26.5325 96.3973 26.5836 97.8085 26.5911C99.6317 26.6007 100.478 26.4182 101.763 25.7388C102.574 25.3097 103.569 24.402 104.148 23.5619C104.524 23.0179 105.055 21.9077 105.055 21.6681C105.055 21.6014 104.333 21.548 103.441 21.5486L101.827 21.5495L101.525 22.0776C101.148 22.7351 100.341 23.3293 99.4761 23.5854C98.6221 23.8383 96.9873 23.8359 96.1253 23.5807C94.8648 23.2074 93.7748 22.1091 93.4554 20.8906C93.3702 20.5655 93.2732 20.196 93.2399 20.0695C93.1827 19.8529 93.5337 19.8395 99.2688 19.8395H105.359L105.276 18.4928C105.177 16.8791 104.928 15.8987 104.308 14.6712C103.478 13.0278 101.9 11.8085 100.036 11.3704C98.8419 11.0896 96.5395 11.1181 95.3528 11.4283ZM37.9866 11.5293C37.9857 11.5835 39.1552 14.9258 40.5855 18.9565L43.1856 26.2851L44.7628 26.2485L46.34 26.2118L47.8569 20.9898C48.6912 18.1177 49.4107 15.8119 49.4558 15.8658C49.5007 15.9196 50.1706 18.0625 50.9441 20.6279C51.7176 23.1932 52.4198 25.5139 52.5044 25.7848L52.6583 26.2775L54.1842 26.2767L55.7103 26.2759L58.3126 18.9438C59.7438 14.9111 60.9149 11.571 60.9149 11.5212C60.9149 11.4715 60.1257 11.4308 59.1609 11.4308H57.4069L55.8529 16.5877C54.9983 19.4241 54.2578 21.7891 54.2073 21.8435C54.1568 21.8979 53.5394 19.9763 52.8352 17.5734C52.1312 15.1705 51.4342 12.8036 51.2865 12.3137L51.0178 11.4228L49.4263 11.4597L47.8346 11.4965L46.3043 16.7187C45.4626 19.5908 44.7444 21.9403 44.7081 21.9396C44.6719 21.939 43.9315 19.5741 43.0627 16.6846L41.4832 11.4308H39.7357C38.7746 11.4308 37.9876 11.4752 37.9866 11.5293ZM74.9361 11.6607C74.9814 11.7872 76.3019 15.1278 77.8704 19.0841L80.7222 26.2775H82.3382H83.9543L84.3489 25.2593C84.5661 24.6992 85.8522 21.4622 87.2071 18.0658C88.562 14.6695 89.7001 11.7872 89.7362 11.6607C89.7962 11.4498 89.6555 11.4309 88.0405 11.4328L86.2792 11.4346L84.3585 16.8933C83.3022 19.8955 82.3832 22.3381 82.3162 22.3213C82.2493 22.3045 81.3348 19.8476 80.284 16.8615L78.3735 11.4324L76.6135 11.4316C74.9936 11.4308 74.8602 11.4491 74.9361 11.6607ZM18.4215 13.3498C18.9288 13.4568 19.4822 13.6204 19.6511 13.7134C19.942 13.8733 19.9118 13.8948 19.0874 14.1174C14.3562 15.3945 13.5459 21.3703 17.6069 25.036C18.5204 25.8607 20.0875 26.6859 21.3861 27.026C22.6754 27.3637 24.9856 27.3329 26.2997 26.9605C27.5018 26.6198 28.9335 25.9274 29.8854 25.2261C30.8193 24.5382 32.0401 23.1782 32.5882 22.2155C33.2964 20.9716 33.3877 20.8677 33.2898 21.4162C32.7865 24.2358 31.3311 27.062 29.2567 29.2471C26.9614 31.6649 24.4549 33.0316 21.3359 33.5661C19.147 33.9412 17.1635 33.7601 15.0773 32.9949C9.0391 30.7803 5.8697 23.7547 8.46094 18.3286C9.92153 15.2699 12.3225 13.5403 15.7203 13.0991C16.2486 13.0306 17.426 13.1397 18.4215 13.3498ZM99.5599 14.191C100.501 14.5423 101.332 15.2745 101.712 16.0877C102.281 17.3048 102.619 17.2118 97.6293 17.2118H93.2333L93.2959 16.8854C93.5027 15.8065 94.7968 14.5263 96.0776 14.133C97.0124 13.8461 98.711 13.8743 99.5599 14.191ZM70.9281 21.5929C70.8446 21.8759 70.5278 22.3485 70.2079 22.6677C69.4455 23.4277 68.3305 23.7812 66.6944 23.7812C65.361 23.7812 64.7936 23.6022 64.35 23.0416C64.1025 22.7291 64.061 22.5457 64.1082 21.9735C64.2112 20.7209 64.804 20.3856 68.5572 19.4571L70.9948 18.8541L71.0359 19.9709C71.0585 20.5852 71.0099 21.315 70.9281 21.5929Z" fill="#2A3F75"/>
<path d="M117.977 9.04791C119.04 7.87463 118.656 6.0084 117.218 5.35711C116.534 5.0473 116.027 5.04653 115.358 5.3541C114.406 5.79241 113.975 6.47994 113.975 7.55994C113.975 8.70078 114.853 9.67239 116 9.80128C116.799 9.89115 117.432 9.6498 117.977 9.04791Z" fill="url(#paint2_linear_1582_70567)"/>
<path d="M111.471 26.2588V16.4048V6.55078H109.846C108.952 6.55078 108.181 6.59018 108.133 6.6384C108.084 6.68649 108.045 11.1208 108.045 16.4925V26.2588H109.758H111.471Z" fill="url(#paint3_linear_1582_70567)"/>
<path d="M140 16.5362C139.962 16.5362 139.932 14.2895 139.932 11.5435V6.55078H138.219H136.506V16.4048V26.2588H138.219H139.932L139.934 23.3355L139.937 20.4121L140.824 19.6703L141.71 18.9286L142.106 19.4803C142.285 19.7301 143.118 20.8926 144.09 22.2514L144.73 23.1454L146.96 26.2588H148.996C150.606 26.2588 151.005 26.2244 150.902 26.0946C150.831 26.0044 149.946 24.807 148.935 23.434C147.926 22.061 146.439 20.0419 145.633 18.947L144.168 16.9564L147.387 14.2324C149.156 12.7342 150.604 11.4867 150.604 11.4603C150.604 11.4338 149.611 11.4122 148.397 11.4125L146.19 11.4129L143.13 13.9746C141.446 15.3834 140.038 16.5362 140 16.5362Z" fill="url(#paint4_linear_1582_70567)"/>
<path d="M133.573 13.1706C133.041 12.3818 132.261 11.7835 131.273 11.4062C130.292 11.0317 128.223 10.9362 127.121 11.2145C126.345 11.4103 125.254 11.9079 124.615 12.3578L124.252 12.6127V12.0125V11.4124H122.539H120.826V19.1051C120.826 27.5446 120.844 27.3534 120.04 27.7678C119.827 27.8774 119.517 27.9669 119.351 27.9666C118.865 27.9658 118.193 27.4844 118.113 27.0801C118.074 26.8815 118.031 23.2602 118.018 19.0328L117.993 11.3467H116.281H114.568L114.532 18.5073C114.513 22.5222 114.553 26.174 114.625 26.82C114.892 29.2329 116.383 30.8622 118.693 31.2681C120.763 31.6316 123.059 30.3011 123.878 28.2624C124.174 27.5263 124.184 27.366 124.25 21.9233C124.312 16.8036 124.339 16.2981 124.566 15.8424C125.136 14.6988 126.549 13.9964 128.28 13.9964C129.509 13.9964 130.249 14.3733 130.676 15.2176C130.968 15.7962 130.972 15.8715 130.972 21.0315V26.2591H132.685H134.398V20.6991C134.398 14.5599 134.376 14.3603 133.573 13.1706Z" fill="url(#paint5_linear_1582_70567)"/>
</g>
<defs>
<linearGradient id="paint0_linear_1582_70567" x1="12.32" y1="12.4814" x2="23.5348" y2="34.449" gradientUnits="userSpaceOnUse">
<stop stop-color="#0B7798"/>
<stop offset="1" stop-color="#1EA3CD"/>
</linearGradient>
<linearGradient id="paint1_linear_1582_70567" x1="12.188" y1="7.02921" x2="3.66771" y2="33.6492" gradientUnits="userSpaceOnUse">
<stop stop-color="#188EFC"/>
<stop offset="1" stop-color="#2DC7FA"/>
</linearGradient>
<linearGradient id="paint2_linear_1582_70567" x1="108.045" y1="7.88321" x2="150.812" y2="31.373" gradientUnits="userSpaceOnUse">
<stop stop-color="#27B7FB"/>
<stop offset="1" stop-color="#0458FF"/>
</linearGradient>
<linearGradient id="paint3_linear_1582_70567" x1="108.045" y1="7.88295" x2="150.811" y2="31.3727" gradientUnits="userSpaceOnUse">
<stop stop-color="#27B7FB"/>
<stop offset="1" stop-color="#0458FF"/>
</linearGradient>
<linearGradient id="paint4_linear_1582_70567" x1="108.045" y1="7.88295" x2="150.811" y2="31.3727" gradientUnits="userSpaceOnUse">
<stop stop-color="#27B7FB"/>
<stop offset="1" stop-color="#0458FF"/>
</linearGradient>
<linearGradient id="paint5_linear_1582_70567" x1="108.045" y1="7.88321" x2="150.812" y2="31.373" gradientUnits="userSpaceOnUse">
<stop stop-color="#27B7FB"/>
<stop offset="1" stop-color="#0458FF"/>
</linearGradient>
<clipPath id="clip0_1582_70567">
<rect width="151" height="36" fill="white"/>
</clipPath>
</defs>
</svg>
